# xmcd
#
# Track frame offsets: 
#        150
#        10515
#        19072
#        27902
#        39800
#        48355
#        57047
#        68745
#        78417
#        88857
#        99482
#        111100
#        119965
#        130297
#        139737
#        150750
#        161822
#        171250
#        182240
#        191147
#
# Disc length: 2724 seconds
#
# Revision: 0
# Processed by: cddbd v1.5.1PL0 Copyright (c) Steve Scherf et al.
# Submitted via: ExactAudioCopy v0.95a5
#
DISCID=050aa214
DTITLE=Faron Young - The Complete Capitol Hits of Faron Young
DYEAR=2000
DGENRE=Country
TTITLE0=Everytime I'm Kissing You
TTITLE1=That's the Way I Feel
TTITLE2=I Hate Myself (For Falling in Love With You)
TTITLE3=A Long Time Ago
TTITLE4=Last Night at the Party
TTITLE5=That's the Way It's Gotta Be
TTITLE6=Country Girl
TTITLE7=I Hear You Talkin'
TTITLE8=Riverboat
TTITLE9=Face to the Wall
TTITLE10=Your Old Used to Be
TTITLE11=There's Not Any Like You Left
TTITLE12=Forget the Past
TTITLE13=A World So Full of Love
TTITLE14=Hello Walls
TTITLE15=Congratulations
TTITLE16=Backtrack
TTITLE17=Three Days
TTITLE18=The Comeback
TTITLE19=Down by the River
EXTD=
EXTT0=
EXTT1=
EXTT2=
EXTT3=
EXTT4=
EXTT5=
EXTT6=
EXTT7=
EXTT8=
EXTT9=
EXTT10=
EXTT11=
EXTT12=
EXTT13=
EXTT14=
EXTT15=
EXTT16=
EXTT17=
EXTT18=
EXTT19=
PLAYORDER=
